<svg xmlns="http://www.w3.org/2000/svg" width="33" height="32" viewBox="0 0 33 32"><path fill="#fff" d="M16.96 0A16.02 16.02 0 0 0 .92 16c0 8.84 7.18 16 16.04 16S33 24.84 33 16 25.82 0 16.96 0zm8.14 17.73c.74.73 1.53 1.41 2.2 2.22.3.35.58.72.8 1.13.3.59.03 1.24-.5 1.28l-3.29-.01a2.54 2.54 0 0 1-2.1-.85c-.45-.46-.87-.95-1.3-1.43a3.08 3.08 0 0 0-.6-.52c-.44-.29-.83-.2-1.1.26-.25.48-.31 1-.34 1.53-.03.78-.27.98-1.04 1.01a8.45 8.45 0 0 1-4.7-1c-1.3-.74-2.3-1.78-3.17-2.96-1.7-2.29-3-4.81-4.16-7.41-.27-.58-.08-.89.57-.9a115 115 0 0 1 3.22-.01c.43.01.72.26.89.67a19.81 19.81 0 0 0 2.18 4.03c.24.34.48.67.82.91.39.26.68.17.86-.25.11-.27.16-.56.18-.85.09-.99.1-1.98-.05-2.96-.09-.62-.44-1.02-1.05-1.13-.32-.06-.27-.18-.12-.36.27-.31.51-.5 1.01-.5h3.71c.59.12.72.38.8.97v4.11c0 .23.12.9.53 1.05.32.11.54-.15.74-.36.89-.94 1.52-2.05 2.09-3.2.25-.51.47-1.04.68-1.56.15-.39.4-.59.84-.58l3.57.01.32.01c.6.11.76.37.58.95-.3.92-.87 1.69-1.42 2.46-.6.82-1.24 1.62-1.83 2.45-.54.75-.5 1.13.18 1.79z"/></svg>